<?xml version="1.0" standalone="no"?>
<svg xmlns="http://www.w3.org/2000/svg" viewBox="0 0 1440 320"><path fill="#0099ff" fill-opacity="1" d="M0,64L26.7,53.3C53.3,43,107,21,160,16C213.3,11,267,21,320,69.3C373.3,117,427,203,480,208C533.3,213,587,139,640,117.3C693.3,96,747,128,800,128C853.3,128,907,96,960,122.7C1013.3,149,1067,235,1120,272C1173.3,309,1227,299,1280,293.3C1333.3,288,1387,288,1413,288L1440,288L1440,0L1413.3,0C1386.7,0,1333,0,1280,0C1226.7,0,1173,0,1120,0C1066.7,0,1013,0,960,0C906.7,0,853,0,800,0C746.7,0,693,0,640,0C586.7,0,533,0,480,0C426.7,0,373,0,320,0C266.7,0,213,0,160,0C106.7,0,53,0,27,0L0,0Z"></path></svg>