<?xml version="1.0" standalone="no"?><svg xmlns="http://www.w3.org/2000/svg" viewBox="0 0 1440 320"><path fill="#0099ff" fill-opacity="1" d="M0,64L26.7,53.3C53.3,43,107,21,160,16C213.3,11,267,21,320,69.3C373.3,117,427,203,480,208C533.3,213,587,139,640,117.3C693.3,96,747,128,800,128C853.3,128,907,96,960,122.7C1013.3,149,1067,235,1120,272C1173.3,309,1227,299,1280,293.3C1333.3,288,1387,288,1413,288L1440,288L1440,320L1413.3,320C1386.7,320,1333,320,1280,320C1226.7,320,1173,320,1120,320C1066.7,320,1013,320,960,320C906.7,320,853,320,800,320C746.7,320,693,320,640,320C586.7,320,533,320,480,320C426.7,320,373,320,320,320C266.7,320,213,320,160,320C106.7,320,53,320,27,320L0,320Z"></path></svg>